<svg xmlns="http://www.w3.org/2000/svg" width="40" height="40" viewBox="0 0 40 40"><defs><clipPath id="c40ca"><path fill="#fff" d="M0 0h40v40H0z"/></clipPath></defs><g><g><path fill="#fff" d="M0 0h40v40H0z"/><path fill="none" stroke="#e8ecee" stroke-linecap="round" stroke-linejoin="round" stroke-miterlimit="20" stroke-width="2" d="M0 0v0h40v40H0v0z" clip-path="url(&quot;#c40ca&quot;)"/></g><g><path fill="#c6cacc" d="M20.588 19.217l.016-.025v.025zM28 13.147v13.707c0 .632-.53 1.146-1.183 1.146H13.182C12.529 28 12 27.486 12 26.854V13.146c0-.633.53-1.146 1.182-1.146h13.635c.654 0 1.183.513 1.183 1.146zm-11.15 5.022h-2.417v7.224h2.417zm.159-2.235c-.016-.709-.525-1.248-1.352-1.248-.826 0-1.367.54-1.367 1.248 0 .694.525 1.248 1.336 1.248h.016c.842 0 1.367-.554 1.367-1.248zm8.555 5.317c0-2.22-1.192-3.252-2.782-3.252-1.283 0-1.857.7-2.178 1.193v-1.023h-2.417c.032.677 0 7.224 0 7.224h2.417V21.36c0-.216.015-.432.08-.586.174-.432.572-.878 1.24-.878.874 0 1.223.662 1.223 1.633v3.865h2.417z"/></g></g></svg>